#!OML:ASF X:\für Bonn\!DataBase\2005_08_12_Daniel\c3d\Daniel.ASF
:FULLY-SPECIFIED
:DEGREES
213
root -14.4568 16.1267 -13.9672 -5.88894 41.9358 -721.221
lowerback 41.9191 -7.97536 4.44573
upperback 9.75914 -7.4397 -1.277
thorax -9.50849 -3.15112 -0.497201
lowerneck -7.03583 -5.72501 -9.8527
upperneck -6.17037 -6.82425 6.80695
head -0.132723 -3.22888 3.79105
rclavicle -2.90226e-014 4.37326e-015
rhumerus -37.1701 0.529121 -89.4723
rradius 40.1914
rwrist 6.05614
rhand -25.8307 23.3036
rfingers 7.12502
rthumb 0.709231 -6.675
lclavicle -2.90226e-014 4.37326e-015
lhumerus -5.31518 16.101 92.8625
lradius 40.4353
lwrist -19.0949
lhand -20.0647 -3.80269
lfingers 7.12502
lthumb 6.27731 26.0843
rfemur -37.9766 5.95366 23.9235
rtibia 57.1928
rfoot -12.8943 8.71641
rtoes -7.74383
lfemur 7.47806 2.18855 -21.0929
ltibia 61.4271
lfoot -13.0601 -13.0039
ltoes -2.28453
214
root -14.3782 16.1297 -13.8803 -5.85237 41.8822 -721.198
lowerback 41.9754 -7.9891 4.4998
upperback 9.72699 -7.4339 -1.29501
thorax -9.56831 -3.14831 -0.540227
lowerneck -6.89218 -5.70381 -9.68176
upperneck -6.30668 -6.81961 6.71542
head -0.213005 -3.23031 3.73325
rclavicle 1.66979e-014 -8.62725e-014
rhumerus -37.0105 0.836014 -89.6032
rradius 40.5428
rwrist 5.85976
rhand -25.927 23.1706
rfingers 7.12502
rthumb 0.616237 -6.80825
lclavicle 1.66979e-014 -8.62725e-014
lhumerus -5.44459 16.0184 92.7598
lradius 40.5174
lwrist -19.1959
lhand -19.864 -3.64078
lfingers 7.12502
lthumb 6.47114 26.2404
rfemur -37.7356 5.98312 23.9815
rtibia 57.5894
rfoot -13.3827 8.78715
rtoes -7.63556
lfemur 7.14514 2.3145 -20.9059
ltibia 62.2591
lfoot -11.521 -13.243
ltoes -2.04017
215
root -14.3039 16.0998 -13.7992 -5.84753 41.8582 -721.175
lowerback 42.0429 -8.01137 4.54482
upperback 9.69968 -7.43917 -1.30369
thorax -9.62419 -3.15021 -0.563698
lowerneck -6.78873 -5.67868 -9.55367
upperneck -6.39035 -6.80341 6.65361
head -0.267037 -3.22522 3.69258
rclavicle -2.26615e-014 1.59028e-014
rhumerus -36.8722 1.2212 -89.7342
rradius 40.9265
rwrist 5.61064
rhand -26.072 23.0981
rfingers 7.12502
rthumb 0.476232 -6.88116
lclavicle -2.26615e-014 1.59028e-014
lhumerus -5.58242 15.9232 92.6564
lradius 40.5832
lwrist -19.2637
lhand -19.71 -3.50548
lfingers 7.12502
lthumb 6.6198 26.3711
rfemur -37.6558 5.95991 24.0433
rtibia 58.1152
rfoot -13.8248 8.84856
rtoes -7.43616
lfemur 6.72587 2.40276 -20.7311
ltibia 63.2843
lfoot -10.1229 -13.558
ltoes -1.9143
216
root -14.2268 16.1015 -13.7116 -5.80511 41.8428 -721.128
lowerback 42.0463 -8.01159 4.55725
upperback 9.69261 -7.43556 -1.31234
thorax -9.63536 -3.14852 -0.579976
lowerneck -6.7523 -5.66122 -9.43912
upperneck -6.45196 -6.79056 6.58709
head -0.301559 -3.2207 3.65038
rclavicle 2.90226e-014 -1.90833e-014
rhumerus -36.673 1.58453 -89.8595
rradius 41.2528
rwrist 5.44708
rhand -26.2163 23.0253
rfingers 7.12502
rthumb 0.336855 -6.95415
lclavicle 2.90226e-014 -1.90833e-014
lhumerus -5.70845 15.8285 92.5745
lradius 40.6915
lwrist -19.2853
lhand -19.5303 -3.34423
lfingers 7.12502
lthumb 6.79328 26.5268
rfemur -37.3888 5.99065 24.0725
rtibia 58.4909
rfoot -14.3015 8.88665
rtoes -7.0999
lfemur 6.34689 2.47882 -20.5614
ltibia 64.1996
lfoot -8.70633 -13.8844
ltoes -1.91808
217
root -14.1499 16.1027 -13.6251 -5.80237 41.8743 -721.108
lowerback 42.072 -8.03438 4.59317
upperback 9.6791 -7.44628 -1.31284
thorax -9.66165 -3.15312 -0.591249
lowerneck -6.81271 -5.65757 -9.35278
upperneck -6.44832 -6.78701 6.50827
head -0.296696 -3.21951 3.6048
rclavicle 8.07066e-014 -4.09496e-014
rhumerus -36.4931 1.97449 -89.9845
rradius 41.605
rwrist 5.22393
rhand -26.3703 22.9973
rfingers 7.12502
rthumb 0.188142 -6.98237
lclavicle 8.07066e-014 -4.09496e-014
lhumerus -5.86925 15.7475 92.4794
lradius 40.809
lwrist -19.3328
lhand -19.3438 -3.18511
lfingers 7.12502
lthumb 6.97329 26.68
rfemur -37.0964 5.95958 24.1267
rtibia 58.8533
rfoot -14.8219 8.89925
rtoes -7.01868
lfemur 5.9434 2.53036 -20.3669
ltibia 65.1584
lfoot -7.4491 -14.1602
ltoes -2.12063
218
root -14.0742 16.1042 -13.5383 -5.81968 41.9037 -721.088
lowerback 42.0916 -8.0389 4.62115
upperback 9.66831 -7.43849 -1.31339
thorax -9.68167 -3.1493 -0.607349
lowerneck -6.90884 -5.66771 -9.29525
upperneck -6.3848 -6.79779 6.45239
head -0.262932 -3.22527 3.56992
rclavicle -6.52014e-014 5.20816e-014
rhumerus -36.3381 2.35306 -90.1021
rradius 41.9694
rwrist 4.9883
rhand -26.533 22.9804
rfingers 7.12502
rthumb 0.0309306 -6.99932
lclavicle -6.52014e-014 5.20816e-014
lhumerus -6.04186 15.7106 92.4098
lradius 40.9232
lwrist -19.3984
lhand -19.2037 -3.13448
lfingers 7.12502
lthumb 7.10849 26.7261
rfemur -36.7341 5.95876 24.1817
rtibia 59.1229
rfoot -15.2884 8.90711
rtoes -6.81029
lfemur 5.52084 2.63999 -20.1411
ltibia 66.1041
lfoot -6.35963 -14.4245
ltoes -2.75448
